<svg xmlns="http://www.w3.org/2000/svg" xmlns:xlink="http://www.w3.org/1999/xlink" width="1000" zoomAndPan="magnify" viewBox="0 0 750 374.999991" height="500" preserveAspectRatio="xMidYMid meet" version="1.0"><defs><g/><clipPath id="516a11babf"><path d="M 209.554688 53.675781 L 343.054688 53.675781 L 343.054688 321.425781 L 209.554688 321.425781 Z M 209.554688 53.675781 " clip-rule="nonzero"/></clipPath><clipPath id="aa23185c2f"><path d="M 77.398438 53.570312 L 210.898438 53.570312 L 210.898438 321.320312 L 77.398438 321.320312 Z M 77.398438 53.570312 " clip-rule="nonzero"/></clipPath><clipPath id="8dc8ad3528"><path d="M 212 112 L 314 112 L 314 131 L 212 131 Z M 212 112 " clip-rule="nonzero"/></clipPath><clipPath id="5cdb4542d7"><path d="M 211.21875 121.652344 L 312.765625 105.960938 L 315.054688 120.785156 L 213.507812 136.476562 Z M 211.21875 121.652344 " clip-rule="nonzero"/></clipPath><clipPath id="86c179b71a"><path d="M 211.21875 121.652344 L 312.765625 105.960938 L 315.054688 120.785156 L 213.507812 136.476562 Z M 211.21875 121.652344 " clip-rule="nonzero"/></clipPath><clipPath id="210c622275"><path d="M 211.21875 121.652344 L 312.765625 105.960938 L 315.054688 120.785156 L 213.507812 136.476562 Z M 211.21875 121.652344 " clip-rule="nonzero"/></clipPath><clipPath id="1b5853d987"><path d="M 107 232 L 208 232 L 208 251 L 107 251 Z M 107 232 " clip-rule="nonzero"/></clipPath><clipPath id="5c24e9f968"><path d="M 105.75 242.378906 L 207.292969 226.691406 L 209.582031 241.515625 L 108.039062 257.203125 Z M 105.75 242.378906 " clip-rule="nonzero"/></clipPath><clipPath id="d12685a744"><path d="M 105.75 242.378906 L 207.292969 226.691406 L 209.582031 241.515625 L 108.039062 257.203125 Z M 105.75 242.378906 " clip-rule="nonzero"/></clipPath></defs><g clip-path="url(#516a11babf)"><path fill="#000000" d="M 343.054688 254.355469 L 343.054688 120.640625 L 209.238281 53.679688 L 209.238281 321.3125 L 343.054688 254.355469 " fill-opacity="1" fill-rule="nonzero"/></g><g clip-path="url(#aa23185c2f)"><path fill="#ffffff" d="M 77.398438 120.636719 L 77.398438 254.351562 L 211.214844 321.3125 L 211.214844 53.679688 L 77.398438 120.636719 " fill-opacity="1" fill-rule="nonzero"/></g><path stroke-linecap="butt" transform="matrix(1.141122, -0.203692, 0.203692, 1.141122, 84.95084, 131.607075)" fill="none" stroke-linejoin="miter" d="M 31.143081 10.582884 L 34.959894 10.58298 L 38.468222 23.299847 L 34.47357 23.298815 Z M 41.015889 16.391377 L 39.118674 23.299566 L 37.268196 17.077983 L 38.934049 10.583777 L 43.048957 10.582312 L 45.012232 18.6075 L 46.841957 10.581581 L 50.911961 10.582371 L 47.556777 23.299585 L 42.634668 23.297313 Z M 66.135969 10.537382 L 66.136403 20.430412 L 63.780041 23.275499 L 53.879784 23.278067 L 53.881052 10.537266 L 57.906745 10.536992 L 57.904798 20.251593 L 62.064017 20.251192 L 62.065964 10.536592 Z M 75.953962 13.45036 L 78.014713 10.53539 L 82.570602 10.537332 L 73.714065 23.275535 L 69.017423 23.275854 L 73.670374 16.712372 L 69.299013 10.537167 L 73.82777 10.537689 Z M 76.371253 20.528647 L 78.733511 17.266986 L 82.892764 23.000395 L 78.127996 22.998823 Z M 89.825681 5.198276 L 89.824152 8.850522 L 85.802368 8.84807 L 85.799988 5.19855 Z M 89.823912 10.55864 L 89.82679 23.276219 L 85.801097 23.276492 L 85.801537 10.559505 Z M 93.567423 23.300371 L 93.566443 10.610517 L 97.540598 10.611313 L 97.54217 23.29785 Z M 101.865071 13.73153 L 98.236639 13.730829 L 98.235953 10.608778 L 105.814725 10.609448 L 105.815705 23.299303 L 101.865365 23.299334 Z M 101.865071 13.73153 " stroke="#0072ce" stroke-width="1.73436" stroke-opacity="1" stroke-miterlimit="4"/><g fill="#ffffff" fill-opacity="1"><g transform="translate(89.635751, 157.852874)"><g/></g></g><g fill="#ffffff" fill-opacity="1"><g transform="translate(107.147004, 154.727091)"><g/></g></g><g fill="#000000" fill-opacity="1"><g transform="translate(124.671753, 151.5989)"><g><path d="M -2.03125 -14.265625 L 2.328125 -15.046875 L 8.921875 -1.234375 L 4.375 -0.421875 Z M 10.421875 -9.625 L 9.65625 -1.375 L 6.28125 -8.09375 L 6.859375 -15.84375 L 11.5625 -16.6875 L 15.4375 -7.9375 L 15.875 -17.453125 L 20.53125 -18.28125 L 19.296875 -3.09375 L 13.671875 -2.09375 Z M 10.421875 -9.625 "/></g></g></g><g fill="#000000" fill-opacity="1"><g transform="translate(149.909624, 147.093905)"><g><path d="M 12.671875 -16.9375 L 14.6875 -5.640625 L 12.5625 -1.90625 L 1.28125 0.109375 L -1.3125 -14.4375 L 3.265625 -15.25 L 5.234375 -4.171875 L 9.984375 -5.03125 L 8.015625 -16.109375 Z M 12.671875 -16.9375 "/></g></g></g><g fill="#000000" fill-opacity="1"><g transform="translate(168.001033, 143.864564)"><g><path d="M 6.375 -12.375 L 8.125 -16.125 L 13.328125 -17.046875 L 5.8125 -0.703125 L 0.46875 0.25 L 4.40625 -8.1875 L -1.828125 -14.34375 L 3.34375 -15.265625 Z M 8.28125 -4.390625 L 10.296875 -8.578125 L 16.234375 -2.890625 L 10.78125 -1.921875 Z M 8.28125 -4.390625 "/></g></g></g><g fill="#000000" fill-opacity="1"><g transform="translate(186.224303, 140.611685)"><g><path d="M 2.28125 -21.359375 L 3.015625 -17.203125 L -1.5625 -16.390625 L -2.296875 -20.546875 Z M 3.375 -15.25 L 5.96875 -0.71875 L 1.390625 0.09375 L -1.203125 -14.4375 Z M 3.375 -15.25 "/></g></g></g><g fill="#000000" fill-opacity="1"><g transform="translate(195.138716, 139.02045)"><g><path d="M 1.328125 0.125 L -1.25 -14.359375 L 3.28125 -15.171875 L 5.859375 -0.6875 Z M 8.84375 -12.5 L 4.703125 -11.75 L 4.078125 -15.3125 L 12.734375 -16.859375 L 15.3125 -2.375 L 10.796875 -1.578125 Z M 8.84375 -12.5 "/></g></g></g><g clip-path="url(#8dc8ad3528)"><g clip-path="url(#5cdb4542d7)"><g clip-path="url(#86c179b71a)"><g clip-path="url(#210c622275)"><path fill="#ffffff" d="M 212.628906 127.886719 L 313.300781 112.328125 L 313.644531 114.554688 L 212.972656 130.109375 Z M 212.628906 127.886719 " fill-opacity="1" fill-rule="nonzero"/></g></g></g></g><g clip-path="url(#1b5853d987)"><g clip-path="url(#5c24e9f968)"><g clip-path="url(#d12685a744)"><path fill="#000000" d="M 107.136719 248.488281 L 207.5 232.984375 L 207.835938 235.164062 L 107.476562 250.671875 Z M 107.136719 248.488281 " fill-opacity="1" fill-rule="nonzero"/></g></g></g><path stroke-linecap="butt" transform="matrix(1.141122, -0.203692, 0.203692, 1.141122, 211.03069, 216.240996)" fill="none" stroke-linejoin="miter" d="M 6.961224 17.845992 L 9.706843 10.538114 L 13.986319 10.535217 L 6.89137 29.034125 L 2.030752 29.032559 L 2.031499 26.075076 L 3.859281 26.076137 L 5.407766 21.984582 L 4.069186 21.985266 L 0.509169 10.536014 L 4.764238 10.535606 Z M 21.152183 5.197352 L 21.150654 8.849598 L 17.124961 8.849871 L 17.12649 5.197625 Z M 21.150415 10.557716 L 21.149975 23.274702 L 17.127599 23.275568 L 17.128039 10.558581 Z M 24.893925 23.299447 L 24.892945 10.609593 L 28.8671 10.610389 L 28.86808 23.300244 Z M 33.191573 13.730606 L 29.562549 13.733222 L 29.561863 10.611171 L 37.141227 10.608524 L 37.142207 23.298379 L 33.191867 23.29841 Z M 46.686775 17.847678 L 49.436304 10.537076 L 53.715188 10.537496 L 46.62083 29.033086 L 41.759621 29.034838 L 41.760368 26.077355 L 43.588742 26.075098 L 45.137227 21.983544 L 43.798646 21.984227 L 40.23472 10.5377 L 44.493106 10.537885 Z M 56.811158 15.553941 L 65.060879 15.554565 L 65.063914 18.375797 L 60.692498 18.375975 L 60.693233 20.481354 L 65.756095 20.481366 L 65.757625 13.358028 L 60.852104 13.358717 L 60.850857 14.190324 L 56.808577 14.187636 L 56.810106 10.53539 L 69.640122 10.535467 L 69.641035 20.483353 L 70.541359 20.483173 L 70.542497 23.276681 L 56.808839 23.276191 Z M 74.235501 23.299178 L 74.234521 10.609323 L 78.208676 10.61012 L 78.209656 23.299974 Z M 82.533149 13.730337 L 78.904125 13.732953 L 78.903439 10.610902 L 86.482211 10.611572 L 86.483783 23.298109 L 82.533443 23.298141 Z M 95.10546 13.544063 L 95.104309 10.558856 L 103.309719 10.558417 L 103.310974 29.057435 L 90.525862 29.055104 L 90.527257 25.173482 L 94.593944 25.17368 L 94.596155 26.331105 L 99.361515 26.32936 L 99.358575 23.162406 L 90.526528 23.163953 L 90.527331 10.559996 L 94.364642 10.560328 L 94.364949 20.319831 L 99.359685 20.317952 L 99.359937 13.546973 Z M 95.10546 13.544063 " stroke="#009cde" stroke-width="1.73436" stroke-opacity="1" stroke-miterlimit="4"/><g fill="#ffffff" fill-opacity="1"><g transform="translate(215.715601, 242.486795)"><g><path d="M 6.890625 -7.296875 L 8.546875 -16.203125 L 13.4375 -17.0625 L 9.09375 5.484375 L 3.5625 6.46875 L 2.953125 3.078125 L 5.03125 2.71875 L 5.96875 -2.25 L 4.4375 -1.984375 L -1.953125 -14.328125 L 2.90625 -15.1875 Z M 6.890625 -7.296875 "/></g></g></g><g fill="#ffffff" fill-opacity="1"><g transform="translate(233.93887, 239.233916)"><g><path d="M 2.28125 -21.359375 L 3.015625 -17.203125 L -1.5625 -16.390625 L -2.296875 -20.546875 Z M 3.375 -15.25 L 5.96875 -0.71875 L 1.390625 0.09375 L -1.203125 -14.4375 Z M 3.375 -15.25 "/></g></g></g><g fill="#ffffff" fill-opacity="1"><g transform="translate(242.853282, 237.642682)"><g><path d="M 1.328125 0.125 L -1.25 -14.359375 L 3.28125 -15.171875 L 5.859375 -0.6875 Z M 8.84375 -12.5 L 4.703125 -11.75 L 4.078125 -15.3125 L 12.734375 -16.859375 L 15.3125 -2.375 L 10.796875 -1.578125 Z M 8.84375 -12.5 "/></g></g></g><g fill="#ffffff" fill-opacity="1"><g transform="translate(261.050171, 234.394512)"><g><path d="M 6.890625 -7.296875 L 8.546875 -16.203125 L 13.4375 -17.0625 L 9.09375 5.484375 L 3.5625 6.46875 L 2.953125 3.078125 L 5.03125 2.71875 L 5.96875 -2.25 L 4.4375 -1.984375 L -1.953125 -14.328125 L 2.90625 -15.1875 Z M 6.890625 -7.296875 "/></g></g></g><g fill="#ffffff" fill-opacity="1"><g transform="translate(279.273441, 231.141633)"><g><path d="M -0.25 -8.703125 L 9.171875 -10.390625 L 9.75 -7.1875 L 4.75 -6.296875 L 5.171875 -3.890625 L 10.953125 -4.921875 L 9.5 -13.046875 L 3.90625 -12.046875 L 4.078125 -11.09375 L -0.53125 -10.265625 L -1.265625 -14.4375 L 13.375 -17.0625 L 15.390625 -5.71875 L 16.421875 -5.890625 L 17 -2.6875 L 1.328125 0.109375 Z M -0.25 -8.703125 "/></g></g></g><g fill="#ffffff" fill-opacity="1"><g transform="translate(299.158052, 227.592203)"><g><path d="M 1.328125 0.125 L -1.25 -14.359375 L 3.28125 -15.171875 L 5.859375 -0.6875 Z M 8.84375 -12.5 L 4.703125 -11.75 L 4.078125 -15.3125 L 12.734375 -16.859375 L 15.3125 -2.375 L 10.796875 -1.578125 Z M 8.84375 -12.5 "/></g></g></g><g fill="#ffffff" fill-opacity="1"><g transform="translate(317.354943, 224.344033)"><g><path d="M 4.96875 -12.015625 L 4.359375 -15.4375 L 13.71875 -17.109375 L 17.484375 4 L 2.890625 6.609375 L 2.09375 2.171875 L 6.75 1.34375 L 6.984375 2.671875 L 12.40625 1.703125 L 11.765625 -1.90625 L 1.6875 -0.109375 L -0.875 -14.5 L 3.515625 -15.28125 L 5.5 -4.140625 L 11.1875 -5.15625 L 9.8125 -12.875 Z M 4.96875 -12.015625 "/></g></g></g><g fill="#ffffff" fill-opacity="1"><g transform="translate(113.864987, 212.650322)"><g/></g></g><g fill="#000000" fill-opacity="1"><g transform="translate(145.210173, 207.055163)"><g><path d="M -0.65625 -35.09375 L 7.546875 -36.5625 L 12.5 -16.765625 L 15.671875 -38.015625 L 25.875 -39.828125 L 30.96875 -20.296875 L 34.640625 -41.484375 L 42.75 -42.9375 L 36.328125 -5.8125 L 26.3125 -4.015625 L 21.4375 -22.09375 L 17.828125 -2.5 L 7.90625 -0.734375 Z M -0.65625 -35.09375 "/></g></g></g><g fill="#cb1919" fill-opacity="1"><g transform="translate(192.887663, 198.544666)"><g><path d="M 0.828125 0.53125 L 12.359375 -20.03125 L 0.015625 -35.40625 L 10.03125 -37.203125 L 17.609375 -27.390625 L 24.078125 -39.703125 L 34.234375 -41.515625 L 23.453125 -22.015625 L 35.8125 -5.71875 L 25.203125 -3.8125 L 18.03125 -14.1875 L 11.125 -1.3125 Z M 0.828125 0.53125 "/></g></g></g><g fill="#ffffff" fill-opacity="1"><g transform="translate(232.488152, 191.475924)"><g><path d="M 10.53125 -30.484375 L 10.875 -22.296875 L 28.453125 -25.4375 L 29.21875 -4.53125 L 4.234375 -0.078125 L 2.234375 -8.734375 L 11.265625 -10.34375 L 11.96875 -8.015625 L 19.953125 -9.453125 L 19.671875 -17.25 L 2.671875 -14.21875 L 1.859375 -35.515625 L 27.4375 -40.078125 L 27.765625 -30.78125 L 18.75 -29.171875 L 18.65625 -31.9375 Z M 10.53125 -30.484375 "/></g></g></g><g fill="#cb1919" fill-opacity="1"><g transform="translate(345.30901, 232.004781)"><g><path d="M 13.203125 -83.046875 L 33.203125 -83.046875 L 36.53125 -34.234375 L 52.953125 -83.046875 L 77.765625 -83.046875 L 81.5625 -34.8125 L 99.140625 -83.28125 L 118.890625 -83.28125 L 88.109375 1.609375 L 63.75 1.609375 L 59.84375 -43.078125 L 43.078125 1.609375 L 18.953125 1.609375 Z M 13.203125 -83.046875 "/></g></g></g><g fill="#cb1919" fill-opacity="1"><g transform="translate(461.325555, 232.004781)"><g><path d="M 1.71875 1.609375 L 37.5625 -42.046875 L 14.9375 -83.515625 L 39.28125 -83.515625 L 53.078125 -57.203125 L 73.515625 -83.515625 L 98.21875 -83.515625 L 64.5625 -42.046875 L 86.84375 1.609375 L 61 1.609375 L 48.484375 -25.84375 L 26.765625 1.609375 Z M 1.71875 1.609375 "/></g></g></g><g fill="#cb1919" fill-opacity="1"><g transform="translate(557.699804, 232.004781)"><g><path d="M 37.671875 -67.4375 L 35.03125 -48.015625 L 77.765625 -48.015625 L 70.765625 1.609375 L 10 1.609375 L 8.953125 -19.640625 L 30.90625 -19.640625 L 31.59375 -13.90625 L 51 -13.90625 L 53.640625 -32.390625 L 12.296875 -32.390625 L 19.296875 -82.9375 L 81.5625 -82.9375 L 78.453125 -60.890625 L 56.515625 -60.890625 L 57.4375 -67.4375 Z M 37.671875 -67.4375 "/></g></g></g></svg>